<svg version="1.1" id="Layer_1" xmlns="http://www.w3.org/2000/svg" xmlns:xlink="http://www.w3.org/1999/xlink" x="0px" y="0px"
	 width="100%" viewBox="0 0 312 125" enable-background="new 0 0 312 125" xml:space="preserve">
<path fill="#131406" opacity="1.000000" stroke="none" 
	d="
M249.000000,126.000000 
	C166.000031,126.000000 83.500046,126.000000 1.000055,126.000000 
	C1.000037,84.333374 1.000037,42.666740 1.000018,1.000083 
	C104.999931,1.000056 208.999863,1.000056 312.999817,1.000028 
	C312.999878,42.666584 312.999878,84.333168 312.999939,125.999878 
	C291.833344,126.000000 270.666656,126.000000 249.000000,126.000000 
M296.371704,103.014633 
	C292.271149,101.744827 289.594666,103.402008 287.397766,106.347145 
	C287.274414,105.239105 287.151031,104.131058 286.874512,101.647179 
	C283.234497,102.998123 280.151184,104.142448 276.398865,105.812523 
	C275.590057,105.098106 274.864044,103.917297 273.956970,103.756195 
	C271.169647,103.261147 268.314178,103.115875 265.479462,103.035339 
	C265.353912,103.031776 265.172272,105.002701 264.484589,106.838531 
	C262.746521,105.435989 261.154236,103.128777 259.239868,102.820290 
	C255.321747,102.188896 251.230667,102.630913 246.788239,102.630913 
	C246.788239,105.148598 246.602814,107.138573 246.850723,109.073006 
	C247.028397,110.459152 247.786057,111.770958 248.284943,113.115936 
	C248.866272,111.864822 249.496048,110.633408 250.015305,109.357048 
	C250.535278,108.078972 250.944916,106.756012 251.402908,105.452728 
	C251.931259,105.593727 252.459610,105.734734 252.987961,105.875732 
	C253.087082,107.317894 252.998276,108.807510 253.346527,110.186775 
	C253.611023,111.234360 254.431549,112.141556 255.004669,113.111221 
	C255.602921,112.173729 256.432098,111.306854 256.745392,110.282227 
	C257.217163,108.739296 257.328186,107.086060 257.592560,105.479713 
	C258.151123,105.479553 258.709686,105.479401 259.268250,105.479240 
	C259.671387,108.014610 260.074524,110.549980 260.455719,112.947281 
	C262.151062,112.947281 263.583710,112.947281 264.835022,113.759041 
	C265.362946,115.070511 265.890869,116.381981 266.418793,117.693443 
	C267.248596,116.239090 268.078430,114.784737 268.469879,114.098633 
	C271.690521,112.821747 274.380310,111.755318 277.230164,111.382835 
	C280.324097,112.202492 283.418030,113.022148 286.564240,113.855652 
	C287.185516,111.581284 287.553528,110.233925 288.024261,109.761299 
	C290.782928,113.032860 293.795837,114.808243 298.548950,111.417885 
	C297.000153,110.760925 296.150818,110.476814 295.376740,110.054718 
	C294.175415,109.399666 293.025299,108.650604 291.853485,107.941399 
	C293.047180,107.257721 294.235840,106.564980 295.436981,105.894608 
	C295.957520,105.604111 296.503754,105.359657 297.819214,105.240425 
	C301.206024,106.055389 299.678131,108.837097 300.165710,110.859161 
	C300.372620,111.717400 301.300049,112.401909 301.900024,113.165375 
	C302.508392,112.394173 303.398773,111.710442 303.670410,110.834770 
	C304.382935,108.537796 304.825684,106.157143 305.484192,103.347878 
	C305.164246,102.838547 304.501770,101.659027 303.713531,100.570595 
	C303.133728,99.770035 302.389404,99.088638 301.718445,98.354118 
	C301.178894,99.040878 300.691559,99.778107 300.087982,100.403008 
	C299.086365,101.440048 298.009979,102.404892 296.371704,103.014633 
M160.094162,112.142952 
	C160.417862,112.087830 160.740906,112.029152 161.787170,112.310715 
	C164.150406,112.572708 166.513626,112.834709 168.876862,113.096710 
	C168.966660,112.633400 169.056458,112.170097 169.146271,111.706787 
	C168.254944,110.890343 167.363632,110.073898 166.458588,109.244888 
	C167.728561,109.063324 168.966461,108.886345 170.196350,108.710510 
	C169.469315,102.537262 166.975159,101.333015 160.411621,103.958794 
	C160.005661,103.979034 159.599701,103.999275 159.035049,103.233566 
	C157.034653,103.925697 155.034256,104.617828 152.977966,105.329292 
	C152.977966,103.620529 153.159729,101.762917 152.895752,99.970978 
	C152.776672,99.162598 151.769531,98.485054 151.165314,97.748154 
	C150.679153,98.452034 149.809219,99.136887 149.773224,99.863098 
	C149.616669,103.020401 149.580109,106.196823 149.761444,109.351265 
	C149.834259,110.617844 150.579666,111.845749 151.018951,113.091255 
	C151.973419,112.032524 152.927872,110.973785 152.917313,110.985497 
	C155.555344,111.416550 157.580429,111.747452 160.094162,112.142952 
M227.937073,104.139694 
	C227.174683,104.722328 226.412308,105.304955 226.571472,105.183311 
	C223.428467,103.952843 220.907578,102.965927 218.685776,102.096107 
	C218.026154,100.558632 217.345139,98.971283 216.664124,97.383926 
	C216.213638,97.582848 215.763138,97.781776 215.312653,97.980698 
	C215.312653,103.002060 215.312653,108.023415 215.312653,113.044777 
	C215.862076,113.204781 216.411484,113.364784 216.960907,113.524788 
	C217.787735,110.828247 218.614578,108.131714 219.441406,105.435181 
	C219.985107,105.445007 220.528809,105.454834 221.072510,105.464661 
	C221.506042,107.978752 221.939560,110.492844 222.132385,111.611023 
	C225.271057,112.217575 227.732071,112.609558 230.150879,113.180367 
	C233.704483,114.018967 233.872818,111.573410 235.503677,109.301498 
	C237.646606,106.316208 236.171555,105.190460 234.794052,103.752022 
	C232.983887,101.861771 230.572647,102.342438 228.645508,104.647087 
	C228.645508,104.647087 228.527603,104.691025 227.937073,104.139694 
M175.231796,76.499939 
	C175.231796,92.012016 175.231796,107.524086 175.231796,123.036163 
	C181.591370,115.030151 186.948883,106.840706 192.296326,98.644691 
	C197.689957,90.377907 197.674408,90.425064 207.517715,92.620300 
	C217.839233,94.922203 228.185089,97.114983 238.520325,99.355446 
	C238.691666,99.033676 238.863022,98.711899 239.034378,98.390121 
	C218.072968,79.358330 197.111572,60.326534 175.231888,40.460999 
	C175.231888,53.004635 175.231888,64.252281 175.231796,76.499939 
M119.892723,74.440231 
	C128.648102,92.316689 156.399994,97.080200 168.811554,82.645653 
	C165.956238,79.328400 163.083542,75.990936 160.261108,72.711891 
	C151.741837,78.482628 143.229645,78.494026 137.985092,73.053856 
	C133.094193,67.980499 132.481522,58.275032 136.669266,52.209049 
	C141.079010,45.821491 148.563782,44.950424 158.644348,49.753319 
	C161.435760,46.367203 164.255112,42.947197 167.074799,39.526791 
	C156.610321,31.032488 140.089859,30.468121 129.115265,38.035870 
	C118.252594,45.526432 114.589981,59.256195 119.892723,74.440231 
M10.429496,75.874458 
	C20.388641,92.721870 47.243809,96.553024 58.746834,82.606911 
	C55.885098,79.294220 53.005753,75.961151 50.173752,72.682877 
	C41.976299,78.361183 33.552902,78.502525 28.244638,73.374710 
	C23.126719,68.430763 22.371283,58.290916 26.663630,52.153679 
	C31.074800,45.846550 38.277958,45.014503 48.652565,49.701298 
	C51.434700,46.324055 54.242908,42.915169 57.052616,39.504459 
	C46.465851,31.106922 30.399832,30.479126 19.442539,37.810486 
	C7.875146,45.550056 4.251612,60.036369 10.429496,75.874458 
M81.995872,55.500000 
	C81.995872,40.077583 81.995872,24.655165 81.995872,9.295937 
	C76.021751,9.295937 70.620399,9.295937 65.288315,9.295937 
	C65.288315,36.313309 65.288315,63.037930 65.288315,89.704163 
	C70.978058,89.704163 76.379417,89.704163 81.995872,89.704163 
	C81.995872,78.442429 81.995872,67.471214 81.995872,55.500000 
M108.995865,45.510468 
	C108.995865,41.410332 108.995865,37.310192 108.995865,33.298103 
	C103.015846,33.298103 97.615173,33.298103 92.292007,33.298103 
	C92.292007,52.319347 92.292007,71.045265 92.292007,89.701645 
	C97.984665,89.701645 103.385345,89.701645 108.995865,89.701645 
	C108.995865,75.108345 108.995865,60.808247 108.995865,45.510468 
M273.000244,77.495132 
	C273.000244,81.624443 273.000244,85.753754 273.000244,89.949730 
	C277.321320,89.949730 281.205963,89.949730 285.609070,89.949730 
	C285.609070,80.419838 285.609070,71.190712 285.609070,61.755363 
	C288.715057,61.612316 291.320129,61.492336 293.988220,61.369457 
	C293.988220,57.776665 293.988220,54.533440 293.988220,50.773529 
	C291.003204,50.773529 288.285583,50.773529 285.140167,50.773529 
	C285.140167,45.187012 285.140167,40.118687 285.140167,35.047432 
	C280.914032,35.047432 277.152985,35.047432 272.865936,35.047432 
	C272.865936,40.472363 272.865936,45.699501 272.865936,51.329498 
	C269.590179,51.329498 266.848450,51.329498 264.274414,51.329498 
	C264.274414,54.875340 264.274414,57.991879 264.274414,61.349133 
	C267.226562,61.492359 269.968262,61.625374 273.000244,61.772476 
	C273.000244,66.871231 273.000244,71.684113 273.000244,77.495132 
M247.004120,63.500000 
	C247.004120,72.593254 247.004120,81.686508 247.004120,90.702568 
	C251.650024,90.702568 255.718811,90.702568 259.710449,90.702568 
	C259.710449,71.348190 259.710449,52.288448 259.710449,33.297272 
	C255.350266,33.297272 251.281464,33.297272 247.004120,33.297272 
	C247.004120,43.225964 247.004120,52.862980 247.004120,63.500000 
M186.342392,41.177433 
	C187.764420,42.467472 189.186462,43.757507 191.021454,45.422180 
	C191.021454,32.911385 191.021454,21.130383 191.021454,9.561281 
	C185.553467,9.561281 180.508575,9.561281 175.233490,9.561281 
	C175.233490,12.266624 175.560043,14.630438 175.177643,16.873383 
	C173.409973,27.241587 176.884735,35.163540 186.342392,41.177433 
M197.682770,48.476578 
	C197.636993,49.428181 197.162354,50.810543 197.615158,51.261337 
	C200.512863,54.146217 203.614349,56.826431 206.648804,59.573956 
	C206.247513,58.937138 205.846237,58.300316 205.444946,57.663498 
	C213.913406,49.881424 222.381866,42.099354 230.984711,34.193779 
	C212.610413,32.778954 212.610611,32.779137 200.592270,45.396072 
	C199.787933,46.240482 198.977661,47.079247 197.682770,48.476578 
M101.408623,7.616028 
	C97.159325,7.633267 93.463310,9.359559 92.594398,13.481426 
	C91.985672,16.369068 92.602364,20.161610 94.110184,22.693371 
	C96.233574,26.258720 100.253471,27.029430 104.277031,25.444395 
	C108.262627,23.874317 110.357056,20.810717 110.160820,16.531853 
	C109.932037,11.543280 107.091377,8.653509 101.408623,7.616028 
M93.004059,101.450310 
	C92.530579,102.911697 92.057106,104.373085 91.520195,106.030251 
	C88.822495,103.734245 90.643036,98.115326 84.915100,97.790405 
	C86.501190,102.822670 87.711914,106.968254 89.164238,111.027412 
	C89.472275,111.888359 90.662064,112.433823 91.445595,113.124634 
	C92.012352,112.426201 92.774277,111.809326 93.107010,111.013100 
	C93.907707,109.097023 94.507339,107.096931 95.440048,104.402931 
	C96.311562,107.106087 96.792961,109.049042 97.582985,110.857140 
	C97.969727,111.742271 98.930183,112.376732 99.630974,113.124649 
	C100.276405,112.496429 101.251053,111.981445 101.512558,111.221161 
	C102.952538,107.034813 104.218246,102.788521 105.668686,98.164452 
	C99.716110,97.944168 102.323715,104.135254 99.152840,105.815643 
	C98.559280,103.953247 98.120544,102.174393 97.411751,100.510582 
	C97.016235,99.582153 96.171844,98.844963 95.529732,98.021591 
	C94.743515,98.907310 93.957298,99.793037 93.004059,101.450310 
M131.157806,106.724434 
	C131.471237,108.127800 131.634232,109.590065 132.152283,110.913322 
	C132.483795,111.760078 133.339630,112.401558 133.960434,113.135071 
	C134.543915,112.514725 135.611084,111.910851 135.632874,111.271362 
	C135.781662,106.903717 135.710861,102.528595 135.710861,98.155891 
	C135.192459,97.939224 134.674057,97.722557 134.155655,97.505890 
	C132.011459,100.237419 129.867264,102.968948 127.838905,105.552902 
	C125.497353,102.644600 123.405190,100.046059 121.313034,97.447517 
	C120.973793,97.734589 120.634560,98.021660 120.295326,98.308731 
	C120.295326,103.187576 120.295326,108.066422 120.295326,112.945274 
	C120.843369,113.128342 121.391403,113.311417 121.939445,113.494492 
	C122.751396,111.344841 123.563347,109.195190 124.558998,106.559204 
	C126.363556,110.509270 128.441620,111.517929 131.157806,106.724434 
M137.113342,106.045197 
	C136.898636,112.894142 137.609695,113.362144 147.826477,112.944130 
	C147.826477,109.686157 147.826477,106.417343 147.826477,101.705826 
	C144.020950,103.038361 140.734573,104.189117 137.113342,106.045197 
M106.222801,104.072128 
	C106.193642,106.618828 105.152611,110.069847 106.405022,111.471199 
	C107.803650,113.036163 111.284134,112.740555 113.858543,113.254715 
	C114.010315,112.680725 114.162086,112.106743 114.313858,111.532753 
	C113.374939,110.783241 112.436020,110.033730 111.498199,109.282745 
	C112.756348,109.077705 114.014496,108.872665 115.263496,108.669113 
	C114.503914,102.786552 112.675117,101.739594 106.222801,104.072128 
M206.612701,97.997414 
	C204.827179,97.997414 203.041656,97.997414 201.256134,97.997414 
	C201.100616,98.546349 200.945099,99.095284 200.789597,99.644218 
	C202.470459,100.347862 204.151337,101.051506 205.962753,101.809799 
	C205.962753,104.742981 205.848740,107.733154 206.036331,110.704269 
	C206.088577,111.531738 207.033051,112.302887 207.568192,113.099876 
	C208.114380,112.305412 209.082245,111.536285 209.131760,110.711990 
	C209.318542,107.602264 209.206757,104.474617 209.206757,101.830269 
	C211.324966,100.957352 212.859726,100.324883 214.394485,99.692413 
	C214.233032,99.127365 214.071594,98.562317 213.910141,97.997269 
	C211.786575,97.997269 209.662994,97.997269 206.612701,97.997414 
M241.004120,108.393051 
	C241.004120,110.165993 241.004120,111.938934 241.004120,114.043884 
	C242.634094,113.866982 243.796494,113.740822 244.842041,113.627350 
	C244.842041,108.293343 244.842041,103.382332 244.842041,98.306793 
	C243.521973,98.306793 242.361160,98.306793 241.004120,98.306793 
	C241.004120,101.547432 241.004120,104.493896 241.004120,108.393051 
z"/>
<path fill="#B5F74E" opacity="1.000000" stroke="none" 
	d="
M175.231842,75.999939 
	C175.231888,64.252281 175.231888,53.004635 175.231888,40.460999 
	C197.111572,60.326534 218.072968,79.358330 239.034378,98.390121 
	C238.863022,98.711899 238.691666,99.033676 238.520325,99.355446 
	C228.185089,97.114983 217.839233,94.922203 207.517715,92.620300 
	C197.674408,90.425064 197.689957,90.377907 192.296326,98.644691 
	C186.948883,106.840706 181.591370,115.030151 175.231796,123.036163 
	C175.231796,107.524086 175.231796,92.012016 175.231842,75.999939 
z"/>
<path fill="#FAFAFA" opacity="1.000000" stroke="none" 
	d="
M119.744324,74.080307 
	C114.589981,59.256195 118.252594,45.526432 129.115265,38.035870 
	C140.089859,30.468121 156.610321,31.032488 167.074799,39.526791 
	C164.255112,42.947197 161.435760,46.367203 158.644348,49.753319 
	C148.563782,44.950424 141.079010,45.821491 136.669266,52.209049 
	C132.481522,58.275032 133.094193,67.980499 137.985092,73.053856 
	C143.229645,78.494026 151.741837,78.482628 160.261108,72.711891 
	C163.083542,75.990936 165.956238,79.328400 168.811554,82.645653 
	C156.399994,97.080200 128.648102,92.316689 119.744324,74.080307 
z"/>
<path fill="#FAFAFA" opacity="1.000000" stroke="none" 
	d="
M10.260691,75.533691 
	C4.251612,60.036369 7.875146,45.550056 19.442539,37.810486 
	C30.399832,30.479126 46.465851,31.106922 57.052616,39.504459 
	C54.242908,42.915169 51.434700,46.324055 48.652565,49.701298 
	C38.277958,45.014503 31.074800,45.846550 26.663630,52.153679 
	C22.371283,58.290916 23.126719,68.430763 28.244638,73.374710 
	C33.552902,78.502525 41.976299,78.361183 50.173752,72.682877 
	C53.005753,75.961151 55.885098,79.294220 58.746834,82.606911 
	C47.243809,96.553024 20.388641,92.721870 10.260691,75.533691 
z"/>
<path fill="#FFFFFF" opacity="1.000000" stroke="none" 
	d="
M81.995872,56.000000 
	C81.995872,67.471214 81.995872,78.442429 81.995872,89.704163 
	C76.379417,89.704163 70.978058,89.704163 65.288315,89.704163 
	C65.288315,63.037930 65.288315,36.313309 65.288315,9.295937 
	C70.620399,9.295937 76.021751,9.295937 81.995872,9.295937 
	C81.995872,24.655165 81.995872,40.077583 81.995872,56.000000 
z"/>
<path fill="#FFFFFF" opacity="1.000000" stroke="none" 
	d="
M108.995865,46.009308 
	C108.995865,60.808247 108.995865,75.108345 108.995865,89.701645 
	C103.385345,89.701645 97.984665,89.701645 92.292007,89.701645 
	C92.292007,71.045265 92.292007,52.319347 92.292007,33.298103 
	C97.615173,33.298103 103.015846,33.298103 108.995865,33.298103 
	C108.995865,37.310192 108.995865,41.410332 108.995865,46.009308 
z"/>
<path fill="#FDFDFC" opacity="1.000000" stroke="none" 
	d="
M273.000244,76.996063 
	C273.000244,71.684113 273.000244,66.871231 273.000244,61.772476 
	C269.968262,61.625374 267.226562,61.492359 264.274414,61.349133 
	C264.274414,57.991879 264.274414,54.875340 264.274414,51.329498 
	C266.848450,51.329498 269.590179,51.329498 272.865936,51.329498 
	C272.865936,45.699501 272.865936,40.472363 272.865936,35.047432 
	C277.152985,35.047432 280.914032,35.047432 285.140167,35.047432 
	C285.140167,40.118687 285.140167,45.187012 285.140167,50.773529 
	C288.285583,50.773529 291.003204,50.773529 293.988220,50.773529 
	C293.988220,54.533440 293.988220,57.776665 293.988220,61.369457 
	C291.320129,61.492336 288.715057,61.612316 285.609070,61.755363 
	C285.609070,71.190712 285.609070,80.419838 285.609070,89.949730 
	C281.205963,89.949730 277.321320,89.949730 273.000244,89.949730 
	C273.000244,85.753754 273.000244,81.624443 273.000244,76.996063 
z"/>
<path fill="#FFFFFF" opacity="1.000000" stroke="none" 
	d="
M247.004120,63.000000 
	C247.004120,52.862980 247.004120,43.225964 247.004120,33.297272 
	C251.281464,33.297272 255.350266,33.297272 259.710449,33.297272 
	C259.710449,52.288448 259.710449,71.348190 259.710449,90.702568 
	C255.718811,90.702568 251.650024,90.702568 247.004120,90.702568 
	C247.004120,81.686508 247.004120,72.593254 247.004120,63.000000 
z"/>
<path fill="#F8F8F8" opacity="1.000000" stroke="none" 
	d="
M186.072968,40.945835 
	C176.884735,35.163540 173.409973,27.241587 175.177643,16.873383 
	C175.560043,14.630438 175.233490,12.266624 175.233490,9.561281 
	C180.508575,9.561281 185.553467,9.561281 191.021454,9.561281 
	C191.021454,21.130383 191.021454,32.911385 191.021454,45.422180 
	C189.186462,43.757507 187.764420,42.467472 186.072968,40.945835 
z"/>
<path fill="#F9F9F9" opacity="1.000000" stroke="none" 
	d="
M197.926453,48.198608 
	C198.977661,47.079247 199.787933,46.240482 200.592270,45.396072 
	C212.610611,32.779137 212.610413,32.778954 230.984711,34.193779 
	C222.381866,42.099354 213.913406,49.881424 205.444946,57.663498 
	C205.846237,58.300316 206.247513,58.937138 206.648804,59.573956 
	C203.614349,56.826431 200.512863,54.146217 197.615158,51.261337 
	C197.162354,50.810543 197.636993,49.428181 197.926453,48.198608 
z"/>
<path fill="#B6F94F" opacity="1.000000" stroke="none" 
	d="
M101.821625,7.653696 
	C107.091377,8.653509 109.932037,11.543280 110.160820,16.531853 
	C110.357056,20.810717 108.262627,23.874317 104.277031,25.444395 
	C100.253471,27.029430 96.233574,26.258720 94.110184,22.693371 
	C92.602364,20.161610 91.985672,16.369068 92.594398,13.481426 
	C93.463310,9.359559 97.159325,7.633267 101.821625,7.653696 
z"/>
<path fill="#EEEEED" opacity="1.000000" stroke="none" 
	d="
M93.087570,101.064537 
	C93.957298,99.793037 94.743515,98.907310 95.529732,98.021591 
	C96.171844,98.844963 97.016235,99.582153 97.411751,100.510582 
	C98.120544,102.174393 98.559280,103.953247 99.152840,105.815643 
	C102.323715,104.135254 99.716110,97.944168 105.668686,98.164452 
	C104.218246,102.788521 102.952538,107.034813 101.512558,111.221161 
	C101.251053,111.981445 100.276405,112.496429 99.630974,113.124649 
	C98.930183,112.376732 97.969727,111.742271 97.582985,110.857140 
	C96.792961,109.049042 96.311562,107.106087 95.440048,104.402931 
	C94.507339,107.096931 93.907707,109.097023 93.107010,111.013100 
	C92.774277,111.809326 92.012352,112.426201 91.445602,113.124634 
	C90.662064,112.433823 89.472275,111.888359 89.164238,111.027412 
	C87.711914,106.968254 86.501190,102.822670 84.915100,97.790405 
	C90.643036,98.115326 88.822495,103.734245 91.520195,106.030251 
	C92.057106,104.373085 92.530579,102.911697 93.087570,101.064537 
z"/>
<path fill="#F9F9F9" opacity="1.000000" stroke="none" 
	d="
M228.689133,104.529076 
	C230.572647,102.342438 232.983887,101.861771 234.794052,103.752022 
	C236.171555,105.190460 237.646606,106.316208 235.503677,109.301498 
	C233.872818,111.573410 233.704483,114.018967 230.150879,113.180367 
	C227.732071,112.609558 225.271057,112.217575 222.132385,111.611023 
	C221.939560,110.492844 221.506042,107.978752 221.072510,105.464661 
	C220.528809,105.454834 219.985107,105.445007 219.441406,105.435181 
	C218.614578,108.131714 217.787735,110.828247 216.960907,113.524788 
	C216.411484,113.364784 215.862076,113.204781 215.312653,113.044777 
	C215.312653,108.023415 215.312653,103.002060 215.312653,97.980698 
	C215.763138,97.781776 216.213638,97.582848 216.664124,97.383926 
	C217.345139,98.971283 218.026154,100.558632 218.685776,102.096107 
	C220.907578,102.965927 223.428467,103.952843 226.571472,105.183311 
	C226.412308,105.304955 227.174683,104.722328 228.354675,104.689865 
	C229.027832,105.572083 229.250671,105.942825 229.563354,106.207382 
	C229.636185,106.268997 230.014450,105.969597 230.252182,105.836311 
	C229.731171,105.400566 229.210144,104.964821 228.689133,104.529076 
z"/>
<path fill="#E9E9E8" opacity="1.000000" stroke="none" 
	d="
M130.945038,107.028679 
	C128.441620,111.517929 126.363556,110.509270 124.558998,106.559204 
	C123.563347,109.195190 122.751396,111.344841 121.939445,113.494492 
	C121.391403,113.311417 120.843369,113.128342 120.295326,112.945274 
	C120.295326,108.066422 120.295326,103.187576 120.295326,98.308731 
	C120.634560,98.021660 120.973793,97.734589 121.313034,97.447517 
	C123.405190,100.046059 125.497353,102.644600 127.838905,105.552902 
	C129.867264,102.968948 132.011459,100.237419 134.155655,97.505890 
	C134.674057,97.722557 135.192459,97.939224 135.710861,98.155891 
	C135.710861,102.528595 135.781662,106.903717 135.632874,111.271362 
	C135.611084,111.910851 134.543915,112.514725 133.960419,113.135071 
	C133.339630,112.401558 132.483795,111.760078 132.152283,110.913322 
	C131.634232,109.590065 131.471237,108.127800 130.945038,107.028679 
z"/>
<path fill="#F0F0F0" opacity="1.000000" stroke="none" 
	d="
M265.016357,112.947281 
	C263.583710,112.947281 262.151062,112.947281 260.455719,112.947281 
	C260.074524,110.549980 259.671387,108.014610 259.268250,105.479240 
	C258.709686,105.479401 258.151123,105.479553 257.592560,105.479713 
	C257.328186,107.086060 257.217163,108.739296 256.745392,110.282227 
	C256.432098,111.306854 255.602921,112.173729 255.004669,113.111221 
	C254.431549,112.141556 253.611023,111.234360 253.346527,110.186775 
	C252.998276,108.807510 253.087082,107.317894 252.987961,105.875732 
	C252.459610,105.734734 251.931259,105.593727 251.402908,105.452728 
	C250.944916,106.756012 250.535278,108.078972 250.015305,109.357048 
	C249.496048,110.633408 248.866272,111.864822 248.284943,113.115936 
	C247.786057,111.770958 247.028397,110.459152 246.850723,109.073006 
	C246.602814,107.138573 246.788239,105.148598 246.788239,102.630913 
	C251.230667,102.630913 255.321747,102.188896 259.239868,102.820290 
	C261.154236,103.128777 262.746521,105.435989 264.689209,106.873901 
	C264.934692,108.921944 264.975525,110.934608 265.016357,112.947281 
z"/>
<path fill="#E6E6E5" opacity="1.000000" stroke="none" 
	d="
M264.925720,113.353165 
	C264.975525,110.934608 264.934692,108.921944 264.955322,106.481598 
	C265.172272,105.002701 265.353912,103.031776 265.479462,103.035339 
	C268.314178,103.115875 271.169647,103.261147 273.956970,103.756195 
	C274.864044,103.917297 275.590057,105.098106 276.723083,105.935364 
	C277.054901,107.601768 277.062500,109.145325 277.070099,110.688889 
	C274.380310,111.755318 271.690521,112.821747 268.469879,114.098633 
	C268.078430,114.784737 267.248596,116.239090 266.418793,117.693451 
	C265.890869,116.381981 265.362946,115.070511 264.925720,113.353165 
z"/>
<path fill="#EBEBEA" opacity="1.000000" stroke="none" 
	d="
M277.150146,111.035858 
	C277.062500,109.145325 277.054901,107.601768 277.057587,105.672485 
	C280.151184,104.142448 283.234497,102.998123 286.874512,101.647179 
	C287.151031,104.131058 287.274414,105.239105 287.716766,106.901070 
	C287.997711,107.932182 287.959625,108.409370 287.921570,108.886559 
	C287.553528,110.233925 287.185516,111.581284 286.564240,113.855652 
	C283.418030,113.022148 280.324097,112.202492 277.150146,111.035858 
z"/>
<path fill="#E7E7E6" opacity="1.000000" stroke="none" 
	d="
M137.280762,105.692535 
	C140.734573,104.189117 144.020950,103.038361 147.826477,101.705826 
	C147.826477,106.417343 147.826477,109.686157 147.826477,112.944130 
	C137.609695,113.362144 136.898636,112.894142 137.280762,105.692535 
z"/>
<path fill="#F6F6F6" opacity="1.000000" stroke="none" 
	d="
M106.535156,103.841446 
	C112.675117,101.739594 114.503914,102.786552 115.263496,108.669113 
	C114.014496,108.872665 112.756348,109.077705 111.497650,109.283478 
	C112.436020,110.033730 113.374939,110.783241 114.313858,111.532753 
	C114.162086,112.106743 114.010315,112.680725 113.858543,113.254715 
	C111.284134,112.740555 107.803650,113.036163 106.405022,111.471199 
	C105.152611,110.069847 106.193642,106.618828 106.535156,103.841446 
z"/>
<path fill="#F9F9F8" opacity="1.000000" stroke="none" 
	d="
M161.022186,104.010880 
	C166.975159,101.333015 169.469315,102.537262 170.196350,108.710510 
	C168.966461,108.886345 167.728561,109.063324 166.458588,109.244888 
	C167.363632,110.073898 168.254944,110.890343 169.146271,111.706787 
	C169.056458,112.170097 168.966660,112.633400 168.876862,113.096710 
	C166.513626,112.834709 164.150406,112.572708 161.269836,111.783302 
	C160.842392,108.840889 160.932297,106.425880 161.022186,104.010880 
z"/>
<path fill="#F4F4F4" opacity="1.000000" stroke="none" 
	d="
M159.605515,112.078354 
	C157.580429,111.747452 155.555344,111.416550 152.917313,110.985497 
	C152.927872,110.973785 151.973419,112.032524 151.018951,113.091255 
	C150.579666,111.845749 149.834259,110.617844 149.761444,109.351265 
	C149.580109,106.196823 149.616669,103.020401 149.773224,99.863098 
	C149.809219,99.136887 150.679153,98.452034 151.165314,97.748154 
	C151.769531,98.485054 152.776672,99.162598 152.895752,99.970978 
	C153.159729,101.762917 152.977966,103.620529 152.977966,105.329292 
	C155.034256,104.617828 157.034653,103.925697 158.819153,103.867065 
	C154.991867,107.548325 157.185043,109.828369 159.605515,112.078354 
z"/>
<path fill="#DBDCD9" opacity="1.000000" stroke="none" 
	d="
M296.965118,103.400146 
	C298.009979,102.404892 299.086365,101.440048 300.087982,100.403008 
	C300.691559,99.778107 301.178894,99.040878 301.718445,98.354126 
	C302.389404,99.088638 303.133728,99.770035 303.713531,100.570595 
	C304.501770,101.659027 305.164246,102.838547 305.484192,103.347878 
	C304.825684,106.157143 304.382935,108.537796 303.670410,110.834770 
	C303.398773,111.710442 302.508392,112.394173 301.900024,113.165375 
	C301.300049,112.401909 300.372620,111.717400 300.165710,110.859161 
	C299.678131,108.837097 301.206024,106.055389 297.403778,104.885231 
	C296.980621,104.153412 296.972870,103.776779 296.965118,103.400146 
z"/>
<path fill="#FCFCFB" opacity="1.000000" stroke="none" 
	d="
M207.076065,97.997345 
	C209.662994,97.997269 211.786575,97.997269 213.910141,97.997269 
	C214.071594,98.562317 214.233032,99.127365 214.394485,99.692413 
	C212.859726,100.324883 211.324966,100.957352 209.206757,101.830269 
	C209.206757,104.474617 209.318542,107.602264 209.131760,110.711990 
	C209.082245,111.536285 208.114380,112.305412 207.568192,113.099876 
	C207.033051,112.302887 206.088577,111.531738 206.036331,110.704269 
	C205.848740,107.733154 205.962753,104.742981 205.962753,101.809799 
	C204.151337,101.051506 202.470459,100.347862 200.789597,99.644218 
	C200.945099,99.095284 201.100616,98.546349 201.256134,97.997414 
	C203.041656,97.997414 204.827179,97.997414 207.076065,97.997345 
z"/>
<path fill="#F1F1F0" opacity="1.000000" stroke="none" 
	d="
M296.668396,103.207397 
	C296.972870,103.776779 296.980621,104.153412 297.013306,104.812164 
	C296.503754,105.359657 295.957520,105.604111 295.436981,105.894608 
	C294.235840,106.564980 293.047180,107.257721 291.853485,107.941406 
	C293.025299,108.650604 294.175415,109.399666 295.376740,110.054718 
	C296.150818,110.476814 297.000153,110.760925 298.548950,111.417885 
	C293.795837,114.808243 290.782928,113.032860 287.972900,109.323929 
	C287.959625,108.409370 287.997711,107.932182 287.979553,107.290024 
	C289.594666,103.402008 292.271149,101.744827 296.668396,103.207397 
z"/>
<path fill="#FFFFFF" opacity="1.000000" stroke="none" 
	d="
M241.004120,107.916702 
	C241.004120,104.493896 241.004120,101.547432 241.004120,98.306793 
	C242.361160,98.306793 243.521973,98.306793 244.842041,98.306793 
	C244.842041,103.382332 244.842041,108.293343 244.842041,113.627350 
	C243.796494,113.740822 242.634094,113.866982 241.004120,114.043884 
	C241.004120,111.938934 241.004120,110.165993 241.004120,107.916702 
z"/>
<path fill="#38392D" opacity="1.000000" stroke="none" 
	d="
M159.849838,112.110657 
	C157.185043,109.828369 154.991867,107.548325 158.898499,104.260033 
	C159.599701,103.999275 160.005661,103.979034 160.716904,103.984833 
	C160.932297,106.425880 160.842392,108.840889 160.907898,111.611404 
	C160.740906,112.029152 160.417862,112.087830 159.849838,112.110657 
z"/>
<path fill="#F0F0EF" opacity="1.000000" stroke="none" 
	d="
M228.667328,104.588081 
	C229.210144,104.964821 229.731171,105.400566 230.252182,105.836311 
	C230.014450,105.969597 229.636185,106.268997 229.563354,106.207382 
	C229.250671,105.942825 229.027832,105.572083 228.649933,104.965530 
	C228.527603,104.691025 228.645508,104.647087 228.667328,104.588081 
z"/>
</svg>